<?xml version="1.0" encoding="utf-8"?>
<!-- Generator: Adobe Illustrator 27.1.1, SVG Export Plug-In . SVG Version: 6.00 Build 0)  -->
<svg version="1.1" id="OBJECTS" xmlns="http://www.w3.org/2000/svg" xmlns:xlink="http://www.w3.org/1999/xlink" x="0px" y="0px"
	 viewBox="0 0 500 500" style="enable-background:new 0 0 500 500;" xml:space="preserve">
<style type="text/css">
	.st0{opacity:0.43;}
	.st1{fill:#E8EBE4;}
	.st2{fill:#D8DBD5;}
	.st3{fill:#EFF2EB;}
	.st4{fill:#ED6A5A;}
	.st5{fill:#E65847;}
	.st6{fill:#F77C6D;}
	.st7{fill:#1F487E;}
	.st8{fill:#1A3C69;}
	.st9{fill:#245594;}
	.st10{fill:#99B2DD;}
	.st11{fill:#7095D4;}
	.st12{fill:#ACC3EB;}
	.st13{fill:#48284A;}
	.st14{fill:#341936;}
	.st15{fill:#643766;}
	.st16{fill:#C4C7C1;}
	.st17{fill:#404040;}
	.st18{fill:#4F4F4F;}
	.st19{fill:#787878;}
	.st20{fill:#5C5C5C;}
	.st21{fill:#2B2B2B;}
	.st22{fill:#3B3B3B;}
	.st23{fill:#454545;}
	.st24{fill:#242424;}
	.st25{fill:#5E5E5E;}
	.st26{opacity:0.25;}
	.st27{fill:#ED5947;}
	.st28{fill:#ED8174;}
	.st29{fill:#1F1F1F;}
	.st30{fill:#606060;}
	.st31{fill:#828282;}
	.st32{fill:#696969;}
	.st33{fill:#FFFFFF;}
	.st34{fill:#102642;}
	.st35{fill:#163359;}
	.st36{opacity:0.39;}
	.st37{opacity:0.13;fill:#FFFFFF;}
	.st38{fill:#E0E3DC;}
	.st39{fill:#86A5D9;}
	.st40{fill:#5084DD;}
	.st41{fill:#E4E8F0;}
	.st42{fill:#A2BDEB;}
	.st43{fill:#F57969;}
	.st44{fill:#4468A6;}
	.st45{fill:#3B5A8F;}
	.st46{fill:#89A7DD;}
	.st47{fill:#1C4070;}
	.st48{fill:#255696;}
</style>
<path class="st0" d="M433.97,205.49c-0.12-11.57-1.31-23.14-3.73-34.45c-1.86-8.04-4.1-16.01-7.3-23.61
	c-3.12-7.61-6.77-15.02-11.2-21.91c-8.74-13.87-19.8-26.11-32.43-36.22c-6.3-5.08-12.98-9.64-19.94-13.69
	c-3.47-2.04-7.03-3.92-10.65-5.67c-3.63-1.74-7.29-3.36-11.11-4.7c-0.25-0.09-0.52,0.03-0.63,0.28c-0.11,0.25,0.01,0.55,0.27,0.65
	l0.02,0.01c3.64,1.54,7.18,3.38,10.64,5.31c3.46,1.95,6.85,4.01,10.14,6.23c6.59,4.4,12.85,9.27,18.67,14.6
	c11.68,10.61,21.56,23.06,29.02,36.73c2.11,3.77,3.96,7.66,5.62,11.63C380.02,95.14,319.51,64.29,250,64.29
	c-60.04,0-113.36,23.02-146.98,58.63c4.63-10.06,10.43-19.59,17.63-28.11c10.36-12.59,23.78-22.65,38.65-30.06l0.01-0.01
	c0.23-0.11,0.33-0.38,0.24-0.63c-0.1-0.26-0.39-0.39-0.65-0.29c-15.62,5.96-30.45,14.88-42.57,26.98
	c-12.29,11.93-21.82,26.64-28.98,42.29c-3.76,8.41-6.87,17.11-9.4,25.97c-7.82,16.36-12.11,34.12-12.11,52.69
	c0,33.08,13.6,63.62,36.57,88.22h295.16c22.97-24.6,36.57-55.14,36.57-88.22C434.15,209.66,434.08,207.57,433.97,205.49z"/>
<g>
	<g>
		<path class="st1" d="M131.04,264.74c5.97-13.98,9.29-30.93,8.93-49.16c-0.59-29.41-10.66-55.15-25.48-70.17
			c-5.35-5.43-10.88,12.39-16.91,27.47c-3.99,10-8.17,18.8-12.68,18.89c-13.19,0.26-26.34-52.51-35.53-40.17
			c-11.82,15.86-19.09,39.67-18.55,66.17c0.95,47.06,26.14,84.72,56.28,84.11C105.58,301.52,121.62,286.87,131.04,264.74z
			 M53.33,202.35c-6.05,0.13-11.05-4.69-11.17-10.74c-0.12-6.04,4.69-11.05,10.74-11.16c6.05-0.13,11.05,4.69,11.16,10.72
			C64.18,197.23,59.38,202.24,53.33,202.35z"/>
		<path class="st2" d="M53.33,202.35c-6.05,0.13-11.05-4.69-11.17-10.74c-0.06-2.99,1.08-5.72,3-7.73c-0.73,1.5-1.14,3.2-1.1,4.99
			c0.13,6.05,5.12,10.86,11.17,10.74c3.05-0.06,5.78-1.36,7.73-3.41C61.21,199.77,57.58,202.27,53.33,202.35z"/>
		<path class="st3" d="M87.11,301.89c-30.14,0.6-55.34-37.06-56.28-84.11c-0.54-26.49,6.73-50.3,18.55-66.17
			c0.18-0.24,0.35-0.45,0.53-0.64c-9.65,15.64-15.38,37.14-14.9,60.78c0.95,47.06,26.14,84.72,56.29,84.11
			c12.85-0.26,24.51-7.42,33.6-19.2C115.35,291.99,102.02,301.59,87.11,301.89z"/>
		<path class="st2" d="M131.04,264.74c0.08-35.07-18.89-70.11-33.46-91.85c6.02-15.08,11.55-32.9,16.91-27.47
			c14.82,15.01,24.89,40.75,25.48,70.17C140.34,233.8,137.01,250.76,131.04,264.74z"/>
		<g>
			<path class="st4" d="M63.74,263.07c-5.57,0.11-10.2-5.88-10.35-13.38c-0.15-7.5,4.24-13.67,9.81-13.78
				c5.57-0.11,10.2,5.88,10.35,13.38C73.7,256.78,69.31,262.95,63.74,263.07z"/>
			<path class="st5" d="M63.74,263.07c-5.56,0.11-10.2-5.88-10.35-13.38c-0.09-4.63,1.55-8.75,4.12-11.25
				c-0.99,2.15-1.54,4.71-1.49,7.45c0.16,7.5,4.79,13.49,10.36,13.37c2.13-0.04,4.09-0.97,5.69-2.53
				C70.34,260.48,67.27,262.99,63.74,263.07z"/>
			<path class="st6" d="M61.52,246.46c-3.31-5.03,4.14-10.35,7.92-5.67c1.18,1.46,1.94,3.51,1.61,6.39
				C70.42,252.51,64.21,250.56,61.52,246.46z"/>
		</g>
		<g>
			
				<ellipse transform="matrix(0.9998 -0.0201 0.0201 0.9998 -5.3903 2.0354)" class="st7" cx="98.75" cy="269.68" rx="10.08" ry="13.58"/>
			<path class="st8" d="M99.02,283.26c-5.56,0.11-10.2-5.88-10.35-13.38c-0.09-4.63,1.55-8.75,4.12-11.25
				c-0.99,2.15-1.54,4.71-1.49,7.45c0.16,7.5,4.79,13.49,10.36,13.37c2.13-0.04,4.09-0.97,5.69-2.53
				C105.62,280.67,102.55,283.18,99.02,283.26z"/>
			<path class="st9" d="M96.8,266.65c-3.31-5.03,4.14-10.35,7.92-5.67c1.18,1.46,1.94,3.51,1.61,6.39
				C105.7,272.7,99.5,270.75,96.8,266.65z"/>
		</g>
		<g>
			<path class="st10" d="M120.54,251.53c-5.57,0.11-10.2-5.88-10.35-13.38c-0.15-7.5,4.24-13.67,9.81-13.78
				c5.57-0.11,10.2,5.88,10.35,13.38C130.5,245.24,126.11,251.41,120.54,251.53z"/>
			<path class="st11" d="M120.54,251.53c-5.56,0.11-10.2-5.88-10.35-13.38c-0.09-4.63,1.55-8.75,4.12-11.25
				c-0.99,2.15-1.54,4.71-1.49,7.45c0.16,7.5,4.79,13.49,10.36,13.37c2.13-0.04,4.09-0.97,5.69-2.53
				C127.14,248.94,124.07,251.45,120.54,251.53z"/>
			<path class="st12" d="M118.32,234.92c-3.31-5.03,4.14-10.35,7.92-5.67c1.18,1.46,1.94,3.51,1.61,6.39
				C127.22,240.97,121.01,239.02,118.32,234.92z"/>
		</g>
		<g>
			<path class="st13" d="M115.32,208.67c-5.57,0.11-10.2-5.88-10.35-13.38c-0.15-7.5,4.24-13.67,9.81-13.78
				c5.57-0.11,10.2,5.88,10.35,13.38C125.28,202.39,120.88,208.56,115.32,208.67z"/>
			<path class="st14" d="M115.31,208.67c-5.56,0.11-10.2-5.88-10.35-13.38c-0.09-4.63,1.55-8.75,4.12-11.25
				c-0.99,2.15-1.54,4.71-1.49,7.45c0.16,7.5,4.79,13.49,10.36,13.37c2.13-0.04,4.09-0.97,5.69-2.53
				C121.91,206.08,118.84,208.6,115.31,208.67z"/>
			<path class="st15" d="M113.09,192.06c-3.31-5.03,4.14-10.35,7.92-5.67c1.18,1.46,1.94,3.51,1.61,6.39
				C121.99,198.11,115.79,196.16,113.09,192.06z"/>
		</g>
	</g>
	<g>
		<path class="st7" d="M101.73,103.4c-1.33,8.54-2.99,17-4.72,25.42c-0.87,4.21-1.77,8.43-2.71,12.62
			c-0.92,4.19-1.89,8.38-2.88,12.55c-1,4.19-1.92,8.39-3.15,12.5c-0.28,0.97-0.57,1.94-0.88,2.9c-0.79,2.47-1.67,4.91-2.55,7.35
			c-0.23,0.66-0.48,1.31-0.71,1.96c-1.31,3.58-2.61,7.17-3.97,10.73c-1.71,4.49-3.53,8.95-5.59,13.34c-0.4,0.84-1.41,1.2-2.25,0.81
			c-0.67-0.31-1.04-1.02-0.96-1.71c0.18-1.69,0.39-3.36,0.63-5.03c0.97-6.91,2.34-13.7,3.69-20.5c0.14-0.68,0.27-1.37,0.4-2.05
			c0.71-3.54,1.46-7.07,2.39-10.54c1.09-4.15,2.48-8.22,3.8-12.32c1.32-4.08,2.66-8.16,4.07-12.22c1.35-4.08,2.77-8.15,4.22-12.2
			c2.9-8.09,5.87-16.18,9.16-24.17c0.23-0.54,0.84-0.79,1.38-0.57c0.02,0.01,0.04,0.02,0.05,0.02
			C101.57,102.5,101.8,102.95,101.73,103.4z"/>
		<path class="st8" d="M87.39,169.39c-0.79,2.47-1.67,4.91-2.55,7.35c-0.23,0.66-0.48,1.31-0.71,1.96
			c-1.31,3.58-2.61,7.17-3.97,10.73c-2.43,2.94-5.19,5.63-8.17,7.41c0.97-6.91,2.34-13.7,3.69-20.5c0.14-0.68,0.27-1.37,0.4-2.05
			c0.71-3.54,1.46-7.07,2.39-10.54c1.09-4.15,2.48-8.22,3.8-12.32c1.32-4.08,2.66-8.16,4.07-12.22c1.35-4.08,2.77-8.15,4.22-12.2
			c2.9-8.09,5.87-16.18,9.16-24.17c0.23-0.54,0.84-0.79,1.38-0.57c0.02,0.01,0.04,0.02,0.05,0.02C96.9,114.24,83.1,155,87.39,169.39
			z"/>
		<path class="st13" d="M73.93,217.01c-0.61,1.4-1.06,2.7-1.39,3.88c-1.29,4.62-0.72,7.58-0.35,8.8c0.04,0.13-0.14,0.21-0.23,0.1
			c-1.27-1.5-4.82-6.04-6.27-11.52c-1.37-5.14-0.89-11.1,5.06-16.12c1.28-1.08,3.4-0.45,3.87,1.15
			C75.53,206.44,76.28,211.6,73.93,217.01z"/>
		<path class="st1" d="M84.92,175.76c0.21,0.06,0.33,0.29,0.26,0.5c-0.21,0.57-0.42,1.14-0.62,1.71
			c-2.43,6.66-4.83,13.33-7.62,19.89c-0.82,1.97-1.7,3.93-2.61,5.88c-0.43,0.9-1.51,1.28-2.41,0.87c-0.72-0.33-1.11-1.09-1.03-1.83
			c0.54-5.02,1.33-9.96,2.22-14.88c0.75-4.16,1.58-8.31,2.41-12.45c0.12-0.59,0.24-1.19,0.35-1.79c0.04-0.22,0.26-0.35,0.48-0.29
			L84.92,175.76z"/>
		<path class="st16" d="M73.11,187.89c0.68,3.89,1.86,7.5,3.83,9.96c-0.82,1.97-1.7,3.93-2.61,5.88c-0.43,0.9-1.51,1.28-2.41,0.87
			c-0.72-0.33-1.11-1.09-1.03-1.83C71.42,197.75,72.22,192.8,73.11,187.89z"/>
		<path class="st4" d="M72.19,229.69c0.04,0.13-0.14,0.21-0.23,0.1c-1.27-1.5-4.82-6.04-6.27-11.52c2.03,1.08,4.4,2.1,6.85,2.62
			C71.25,225.51,71.82,228.47,72.19,229.69z"/>
	</g>
</g>
<g>
	
		<rect x="267.91" y="320.96" transform="matrix(0.9989 0.0469 -0.0469 0.9989 15.4142 -12.2673)" class="st17" width="1.9" height="2.12"/>
	<path class="st18" d="M268.84,320.57l-0.14,2.88l-7.77,2.08l-66.99-3.15c-1.56-0.07-2.77-1.4-2.69-2.97l0.1-2.08
		c0.07-1.41,1.15-2.53,2.51-2.68c0.15-0.02,0.3-0.03,0.45-0.02l66.99,3.15L268.84,320.57z"/>
	<g>
		<path class="st19" d="M247.64,321.95l-12.44-0.58c-0.34-0.02-0.6-0.3-0.58-0.64l0.03-0.64c0.02-0.34,0.3-0.6,0.64-0.58l12.44,0.58
			c0.34,0.02,0.6,0.3,0.58,0.64l-0.03,0.64C248.27,321.71,247.98,321.97,247.64,321.95z"/>
		
			<rect x="241.2" y="319.79" transform="matrix(0.9989 0.0469 -0.0469 0.9989 15.2968 -10.9645)" class="st18" width="0.54" height="1.86"/>
	</g>
	<path class="st17" d="M193.87,314.65c7.32,2.21,25.29,7.22,45.04,9.84l-44.95-2.11c-1.56-0.07-2.77-1.4-2.69-2.97l0.1-2.08
		C191.43,315.92,192.51,314.8,193.87,314.65z"/>
	<path class="st18" d="M269.63,325.93c0,0-0.05,0.01-0.16,0.01C269.52,325.94,269.58,325.94,269.63,325.93z"/>
	<path class="st20" d="M218.3,317.45c-0.87,0.07-1,1.3-0.15,1.53c4.16,1.18,10.75,2.49,13.98,0.13
		C235.74,316.47,224.52,316.99,218.3,317.45z"/>
</g>
<g>
	<g>
		<path class="st21" d="M328.47,343.15c-2.12-3.71-2.39-8.35-0.75-12.74c1.64-4.39,4.9-7.72,8.93-9.12
			c4.37-1.52,8.88-0.93,13.25-0.37c0.53,0.07,1.06,0.14,1.59,0.2c4.51,0.55,9.09,0.77,13.62,0.65c4.39-0.12,10.03-0.59,14.71-3.15
			c3.34-1.83,5.81-4.66,6.87-7.73c-1.53-0.22-2.92-0.53-4.09-0.82c-2.76-0.69-5.9-1.71-8.21-4.05c-1.01-1.02-1.64-2.11-1.88-3.24
			c-0.31-1.46,0.04-2.98,0.98-4.27c1.21-1.67,3.3-2.84,5.45-3.06c2.85-0.3,5.72,0.71,8.07,2.82c2.56,2.3,4.12,5.6,4.25,8.88
			c0.85-0.04,1.67-0.16,2.45-0.33c3.27-0.73,5.98-2.87,6.89-5.45c1.17-3.28-0.43-7.05-2.3-9.48c-5.13-6.64-14.09-9.08-23.6-11.19
			l-21.73-4.82l0.87-3.9l21.73,4.82c10.25,2.27,19.95,4.95,25.9,12.65c3.27,4.23,4.35,9.19,2.91,13.26
			c-1.38,3.9-5.13,6.97-9.79,8.01c-1.27,0.29-2.55,0.42-3.8,0.44c-1.19,4.39-4.48,8.47-9.04,10.97c-5.43,2.97-11.68,3.5-16.52,3.64
			c-4.74,0.13-9.51-0.09-14.22-0.67c-0.54-0.07-1.08-0.14-1.62-0.21c-4.08-0.53-7.94-1.04-11.42,0.18c-2.86,1-5.29,3.52-6.5,6.75
			c-1.23,3.28-1.05,6.69,0.47,9.36L328.47,343.15z M379.91,299.39c-0.19,0-0.37,0.01-0.56,0.03c-1.01,0.1-2.09,0.7-2.63,1.44
			c-0.41,0.57-0.33,0.96-0.3,1.09c0.08,0.37,0.36,0.8,0.81,1.26c1.62,1.64,4.11,2.43,6.34,2.98c1.32,0.33,2.54,0.58,3.67,0.74
			c-0.19-2.08-1.27-4.22-2.91-5.69C383,300.04,381.45,299.39,379.91,299.39z"/>
	</g>
	<path class="st22" d="M348.05,339.74v71.48c0,2.77-2.25,5.01-5.01,5.01H204.92c-2.77,0-5.01-2.24-5.01-5.01v-71.48
		c0-2.77,2.24-5.01,5.01-5.01h138.12c1.27,0,2.42,0.47,3.31,1.27C347.39,336.9,348.05,338.24,348.05,339.74z"/>
	<path class="st23" d="M210.22,337.71c-3.57,0.36-6.35,3.25-6.55,6.83c-0.79,13.74-2.35,46.05,0.37,48.07
		c3.46,2.56,23.5-51.13,22.67-54.17C226.17,336.46,216.75,337.05,210.22,337.71z"/>
	<circle class="st24" cx="215.5" cy="375.6" r="9.62"/>
	<circle class="st22" cx="215.5" cy="375.6" r="4.38"/>
	<path class="st24" d="M222.32,361.73h-14.25c-0.31,0-0.56-0.25-0.56-0.56v-5.12c0-0.31,0.25-0.56,0.56-0.56h14.25
		c0.31,0,0.56,0.25,0.56,0.56v5.12C222.88,361.48,222.63,361.73,222.32,361.73z"/>
	<path class="st24" d="M222.32,352.48h-14.25c-0.31,0-0.56-0.25-0.56-0.56v-5.12c0-0.31,0.25-0.56,0.56-0.56h14.25
		c0.31,0,0.56,0.25,0.56,0.56v5.12C222.88,352.23,222.63,352.48,222.32,352.48z"/>
	<path class="st24" d="M222.32,404.98h-14.25c-0.31,0-0.56-0.25-0.56-0.56v-5.12c0-0.31,0.25-0.56,0.56-0.56h14.25
		c0.31,0,0.56,0.25,0.56,0.56v5.12C222.88,404.73,222.63,404.98,222.32,404.98z"/>
	<path class="st24" d="M222.32,395.73h-14.25c-0.31,0-0.56-0.25-0.56-0.56v-5.12c0-0.31,0.25-0.56,0.56-0.56h14.25
		c0.31,0,0.56,0.25,0.56,0.56v5.12C222.88,395.48,222.63,395.73,222.32,395.73z"/>
	<g>
		<path class="st24" d="M338.7,411.22H232.4c-1.77,0-3.21-1.44-3.21-3.21v-66.37c0-1.77,1.44-3.21,3.21-3.21h106.3
			c1.77,0,3.21,1.44,3.21,3.21v66.37C341.91,409.78,340.47,411.22,338.7,411.22z"/>
		<g>
			<g>
				<g>
					<polygon class="st25" points="236.23,349.84 235.23,349.84 235.23,343.13 242.03,343.13 242.03,344.13 236.23,344.13 					"/>
				</g>
				<g>
					<polygon class="st25" points="241.98,405.53 241.98,406.53 235.28,406.53 235.28,399.73 236.28,399.73 236.28,405.53 					"/>
				</g>
				<g>
					<polygon class="st25" points="334.86,349.84 335.86,349.84 335.86,343.13 329.07,343.13 329.07,344.13 334.86,344.13 					"/>
				</g>
				<g>
					<polygon class="st25" points="329.11,405.53 329.11,406.53 335.82,406.53 335.82,399.73 334.82,399.73 334.82,405.53 					"/>
				</g>
			</g>
		</g>
	</g>
	<path class="st26" d="M348.05,339.74v71.48c0,2.77-2.25,5.01-5.01,5.01h-91.56c30.46-7.39,82.72-27.57,94.87-80.23
		C347.39,336.9,348.05,338.24,348.05,339.74z"/>
	<path class="st21" d="M257.48,388.8c-9.31,1.9-18.21-4.65-19.35-14.07c-1.23-10.18-1.96-23.3,1.91-26.09
		c6.5-4.69,62.25-1.65,67.75,1.85C312.2,353.29,282.81,383.63,257.48,388.8z"/>
</g>
<g>
	<path class="st1" d="M430.29,282.67c-0.7,0.77-1.44,1.49-2.16,2.21c-0.27,0.35-0.55,0.66-0.77,0.99c-0.19,0.37-0.43,0.65-0.55,1.02
		c-0.57,1.37-0.66,2.7-0.31,3.86c0.33,1.14,0.93,2.06,1.67,2.55c0.19,0.12,0.35,0.24,0.55,0.32c0.16,0.11,0.37,0.17,0.56,0.23
		c0.16,0.09,0.42,0.08,0.61,0.14l1.25,0.39c0.93,0.3,1.87,0.57,2.8,0.89l1.39,0.47c0.13,0.05,0.19,0.06,0.38,0.14l0.52,0.23
		l1.04,0.49c2.75,1.41,5.16,3.81,6.55,6.68c1.41,2.86,1.86,6.1,1.37,9.21c-0.47,3.1-1.9,6.15-4.16,8.42
		c-1.11,1.14-2.39,2.09-3.74,2.82l-0.5,0.28c-0.19,0.11-0.24,0.12-0.37,0.18l-0.66,0.31l-1.33,0.6l-4.29,1.96
		c-0.66,0.37-1.16,0.91-1.55,1.7c-0.37,0.78-0.47,1.8-0.27,2.77c0.22,0.95,0.67,1.91,1.55,2.66c0.19,0.22,0.48,0.34,0.72,0.54
		c0.09,0.09,0.33,0.2,0.55,0.3l0.67,0.32l2.65,1.31c3.53,1.78,7.02,3.66,10.43,5.82c0.24,0.15,0.31,0.47,0.16,0.71
		c-0.1,0.16-0.28,0.25-0.46,0.24c-4.03-0.17-7.97-0.62-11.88-1.17l-2.93-0.43l-0.73-0.12c-0.24-0.04-0.47-0.07-0.82-0.17
		c-0.64-0.2-1.32-0.32-1.95-0.62c-2.56-1.07-4.89-3.14-6.23-5.76c-0.7-1.29-1.13-2.71-1.41-4.17c-0.09-0.73-0.15-1.48-0.16-2.23
		c0.05-0.75,0.05-1.51,0.21-2.26c0.49-3.01,2.14-5.95,4.53-8.02c0.57-0.56,1.23-0.95,1.87-1.4l0.49-0.31l0.36-0.21l0.63-0.37
		l2.54-1.46l1.27-0.73l0.64-0.35c0.09-0.05,0.26-0.13,0.27-0.16l0.12-0.1c0.35-0.23,0.63-0.48,0.85-0.76
		c0.42-0.56,0.74-1.19,0.83-1.94c0.09-0.74-0.02-1.52-0.28-2.19c-0.29-0.66-0.68-1.21-1.32-1.71c-0.09-0.06-0.17-0.12-0.26-0.18
		l-0.13-0.1c-0.02-0.03-0.19-0.1-0.28-0.15l-1.3-0.67c-0.87-0.44-1.72-0.93-2.59-1.39l-1.43-0.78c-0.66-0.42-1.34-0.77-1.93-1.3
		c-0.61-0.49-1.19-1.01-1.69-1.62c-0.54-0.56-0.96-1.22-1.35-1.89c-1.59-2.65-1.95-5.76-1.4-8.48c0.52-2.75,2.2-5.17,4.29-6.61
		c0.49-0.4,1.11-0.62,1.64-0.9c0.56-0.25,1.16-0.38,1.71-0.54c1.02-0.16,2.03-0.3,3.07-0.4c0.3-0.03,0.56,0.19,0.58,0.49
		C430.44,282.41,430.38,282.56,430.29,282.67z"/>
	<g>
		<g>
			<g>
				<path class="st4" d="M443.54,385.37c-2.8,1.43-6.3,2.27-10.66,2.31v0.01h-0.85v-0.01c-25.68-0.23-21.68-28.16-18.48-41
					c0.75-3.02,1.46-5.21,1.72-6c0.06-0.19,0.25-0.32,0.45-0.32h33.46c0.21,0,0.39,0.13,0.46,0.32
					C450.85,344.27,461.1,376.42,443.54,385.37z"/>
				<path class="st4" d="M446.33,350.64c0.9-1.14,1.77-2.01,2.85-2.84c1.06-0.82,2.23-1.54,3.57-2.04c0.64-0.3,1.38-0.43,2.09-0.62
					c0.36-0.08,0.74-0.1,1.11-0.14c0.38-0.03,0.75-0.09,1.13-0.06c0.76,0.04,1.54,0.08,2.27,0.3c0.37,0.09,0.75,0.18,1.11,0.29
					l1.04,0.45c0.72,0.28,1.31,0.69,1.91,1.1c0.29,0.21,0.61,0.4,0.88,0.63l0.77,0.71c1.03,0.84,2.06,2.17,2.72,3.5
					c0.7,1.35,1.09,2.8,1.27,4.21c0.18,1.42,0.19,2.83-0.01,4.19c-0.37,2.72-1.29,5.27-2.64,7.56c-0.67,1.15-1.47,2.23-2.38,3.23
					c-0.9,1-1.92,1.92-3.07,2.69c-2.25,1.56-5.14,2.55-8.01,2.35c-2.88-0.13-5.5-1.38-7.55-2.95l2.16-3.1
					c1.78,1.04,3.66,1.72,5.49,1.63c0.91,0,1.8-0.23,2.65-0.55c0.86-0.31,1.68-0.78,2.43-1.38c0.76-0.58,1.47-1.25,2.09-2.03
					c0.64-0.76,1.2-1.6,1.67-2.48c0.97-1.75,1.61-3.72,1.81-5.64c0.22-1.92-0.01-3.81-0.78-5.26c-0.41-0.74-0.82-1.31-1.58-1.98
					l-0.51-0.5c-0.17-0.16-0.36-0.26-0.54-0.39l-0.54-0.39c-0.18-0.14-0.38-0.18-0.56-0.29l-0.55-0.29l-0.58-0.17
					c-0.38-0.16-0.78-0.17-1.18-0.23c-0.2-0.06-0.41-0.02-0.61-0.02c-0.21,0.01-0.42-0.01-0.63,0.01c-0.43,0.08-0.86,0.11-1.3,0.26
					c-0.89,0.2-1.79,0.62-2.67,1.09c-0.86,0.47-1.8,1.1-2.51,1.66L446.33,350.64z"/>
			</g>
		</g>
		<path class="st27" d="M455.74,350.14c-0.03-0.01-0.07,0-0.11,0c-0.43,0.09-0.86,0.11-1.31,0.26c-0.66,0.15-1.31,0.42-1.97,0.73
			c-0.33-1.72-0.7-3.3-1.05-4.7c0.46-0.26,0.94-0.48,1.45-0.67c0.56-0.26,1.2-0.4,1.82-0.55
			C454.95,346.63,455.36,348.3,455.74,350.14z"/>
		<path class="st27" d="M456.77,370.7c-0.32,1.87-0.79,3.67-1.46,5.36c-0.78,0.11-1.58,0.15-2.37,0.09
			c-0.41-0.02-0.81-0.06-1.21-0.12c0.54-1.37,0.95-2.81,1.25-4.3h0.06c0.91,0,1.8-0.22,2.65-0.54
			C456.06,371.06,456.42,370.9,456.77,370.7z"/>
		<path class="st27" d="M443.54,385.37c-2.8,1.43-6.3,2.27-10.66,2.31v0.01h-0.85v-0.01c-25.68-0.23-21.68-28.16-18.48-41
			C416.31,356.8,424.76,380.87,443.54,385.37z"/>
		<path class="st28" d="M431.93,345.87c-0.01-1.37,1.08-2.49,2.45-2.52c3.43-0.08,10.52,0.01,13.39,1.86
			c2.66,1.72,1.98,12.43,1.3,18.88c-0.22,2.08-2.75,2.98-4.23,1.51C439.98,360.79,431.95,351.93,431.93,345.87z"/>
	</g>
</g>
<g>
	<g>
		<polygon class="st29" points="309,301.9 215.75,301.9 225.25,266.56 299.5,266.56 		"/>
		<path class="st22" d="M401.38,283.4h-278c-1.47,0-2.67-1.19-2.67-2.67V121.06c0-1.47,1.19-2.67,2.67-2.67h278
			c1.47,0,2.67,1.19,2.67,2.67v159.67C404.04,282.2,402.85,283.4,401.38,283.4z"/>
		<path class="st29" d="M404.04,271.23H120.71V121.06c0-1.47,1.19-2.67,2.67-2.67h278c1.47,0,2.67,1.19,2.67,2.67V271.23z"/>
		<path class="st22" d="M313,301.9H211.75l0,0c0-3.22,2.61-5.83,5.83-5.83h89.58C310.39,296.06,313,298.67,313,301.9L313,301.9z"/>
		<g>
			<rect x="128.47" y="125.15" class="st30" width="267.82" height="139.33"/>
			<g>
				<polygon class="st31" points="377.88,125.15 140.88,125.15 128.47,125.15 128.47,137.98 128.47,264.48 140.88,264.48 
					140.88,137.98 377.88,137.98 377.88,148.98 339.88,148.98 339.88,183.98 377.88,183.98 377.88,264.48 396.29,264.48 
					396.29,137.98 396.29,125.15 				"/>
				<g>
					<g>
						<rect x="130.88" y="147.23" class="st32" width="8.17" height="8.17"/>
						<rect x="130.88" y="160.23" class="st32" width="8.17" height="8.17"/>
						<rect x="130.88" y="173.23" class="st32" width="8.17" height="8.17"/>
						<rect x="130.88" y="186.23" class="st32" width="8.17" height="8.17"/>
						<rect x="130.88" y="199.23" class="st32" width="8.17" height="8.17"/>
					</g>
				</g>
				<rect x="199.13" y="129.23" class="st32" width="70.5" height="5.25"/>
				<rect x="284.88" y="129.23" class="st32" width="70.5" height="5.25"/>
				<g>
					<rect x="343.5" y="158.58" class="st32" width="6.75" height="6.75"/>
					<rect x="357.13" y="158.58" class="st32" width="6.75" height="6.75"/>
					<rect x="370.75" y="158.58" class="st32" width="6.75" height="6.75"/>
					<rect x="343.5" y="170.46" class="st32" width="6.75" height="6.75"/>
					<rect x="357.13" y="170.46" class="st32" width="6.75" height="6.75"/>
					<rect x="370.75" y="170.46" class="st32" width="6.75" height="6.75"/>
				</g>
			</g>
		</g>
	</g>
	<g>
		<g>
			<g>
				<rect x="210.23" y="149.37" class="st33" width="103.83" height="103.83"/>
			</g>
		</g>
		<g>
			<path class="st1" d="M281.4,187.99c0,4.42-1.49,8.48-3.99,11.73c-3.98,5.15-5.89,11.61-5.89,18.12v1.4h-18.75v-2.18
				c0-0.35-0.01-0.69-0.03-1.04c-0.22-6.01-2.45-11.73-6.05-16.57c-2.85-3.83-4.3-8.74-3.63-14c1.12-8.67,8.17-15.61,16.86-16.58
				c9.09-1.02,17.09,4.28,20.15,12.08C280.93,183.13,281.4,185.5,281.4,187.99z"/>
			<path class="st2" d="M281.4,187.99c0,4.42-1.49,8.48-3.99,11.73c-3.98,5.15-5.89,11.61-5.89,18.12v1.4h-18.75v-2.18
				c0-0.35-0.01-0.69-0.03-1.04c18.1-5.09,24.87-23.91,27.33-35.07C280.93,183.13,281.4,185.5,281.4,187.99z"/>
			<g>
				<path class="st34" d="M264.64,218.57l-0.87-0.07l1.57-20.73c0.09-1,0.13-2.07,0.18-3.11c0.03-0.63,0.05-1.24,0.09-1.83
					c-0.46,0.06-0.92,0.05-1.35-0.05c-0.6-0.14-1.17-0.41-1.66-0.78c-0.56,1.27-1.59,2.23-2.79,2.58c-0.28,0.08-0.57,0.12-0.85,0.13
					c0.28,0.95,0.46,2.02,0.62,3.3l1.35,20.5l-0.87,0.06l-1.35-20.47c-0.18-1.4-0.37-2.51-0.69-3.48c-0.98-0.24-1.83-0.87-2.22-1.76
					c-0.18-0.41-0.21-0.78-0.09-1.1c0.09-0.25,0.29-0.47,0.54-0.58c0.22-0.09,0.46-0.1,0.67,0c0.22,0.1,0.36,0.28,0.44,0.38
					c0.57,0.75,0.99,1.48,1.3,2.28c0.3,0.02,0.61,0,0.91-0.09c1.04-0.3,1.93-1.2,2.35-2.38c-0.22-0.25-0.41-0.54-0.56-0.83
					c-0.58-1.13-0.64-2.5-0.15-3.67c0.04-0.1,0.18-0.43,0.52-0.53c0.17-0.05,0.35-0.03,0.51,0.06c0.3,0.17,0.43,0.53,0.48,0.68
					c0.42,1.5,0.48,2.87,0.19,4.06c0.44,0.39,0.98,0.68,1.55,0.81c0.38,0.09,0.8,0.09,1.21,0.01c0.04-0.45,0.08-0.89,0.14-1.29
					c0.12-0.88,0.61-1.73,1.45-1.63c0.32,0.03,0.6,0.21,0.78,0.5c0.24,0.39,0.29,0.97,0.12,1.44c-0.29,0.79-0.92,1.33-1.66,1.62
					c-0.04,0.67-0.08,1.38-0.11,2.11c-0.05,1.05-0.09,2.13-0.18,3.14L264.64,218.57z M256.57,191.97c0.02,0.01-0.03,0.04-0.04,0.08
					c-0.04,0.1-0.01,0.26,0.07,0.45c0.19,0.43,0.54,0.77,0.97,1.01c-0.24-0.49-0.54-0.95-0.9-1.43
					C256.62,192.02,256.59,191.98,256.57,191.97z M267.15,189.89c-0.21,0-0.42,0.45-0.48,0.88c-0.04,0.26-0.07,0.53-0.09,0.81
					c0.34-0.22,0.61-0.52,0.76-0.92c0.08-0.22,0.06-0.52-0.04-0.68c-0.05-0.09-0.1-0.09-0.13-0.1
					C267.16,189.89,267.16,189.89,267.15,189.89z M261.91,187.38c-0.27,0.91-0.2,1.91,0.23,2.75c0.02,0.03,0.03,0.06,0.05,0.09
					C262.28,189.35,262.19,188.41,261.91,187.38z"/>
			</g>
			<path class="st35" d="M264.54,233.83h-4.78c-4.32,0-7.82-3.5-7.82-7.82v-8c0-0.38,0.31-0.68,0.68-0.68h19.05
				c0.38,0,0.68,0.31,0.68,0.68v8C272.36,230.33,268.86,233.83,264.54,233.83z"/>
			<rect x="251.27" y="218.53" class="st34" width="21.76" height="4.33"/>
			<rect x="251.27" y="224.28" class="st34" width="21.76" height="4.33"/>
			<g>
				<path class="st33" d="M258.78,171.96c-3.17,2.41-6.07,5.07-8.26,8.14c-1.14,1.51-1.99,3.17-2.78,4.86
					c-0.86,1.69-1.32,3.52-2.03,5.46l-0.02,0.05c-0.1,0.27-0.39,0.4-0.66,0.3c-0.17-0.06-0.29-0.21-0.32-0.38
					c-0.1-0.52-0.17-1.05-0.23-1.59c-0.05-0.54-0.1-1.08-0.03-1.62c0.04-0.54,0.08-1.09,0.14-1.63c0.1-0.53,0.24-1.06,0.38-1.59
					c0.59-2.11,1.66-4.08,3.02-5.77c1.35-1.7,2.94-3.18,4.68-4.39c1.77-1.19,3.63-2.18,5.71-2.75c0.27-0.07,0.55,0.09,0.62,0.35
					c0.06,0.2-0.02,0.41-0.18,0.53L258.78,171.96z"/>
				<path class="st33" d="M260.87,170.85c0,0.33-0.27,0.6-0.6,0.6c-0.33,0-0.6-0.27-0.6-0.6c0-0.33,0.27-0.6,0.6-0.6
					C260.6,170.24,260.87,170.51,260.87,170.85z"/>
			</g>
		</g>
	</g>
	<g class="st36">
		<polygon class="st37" points="260.6,271.23 231.6,271.23 128.47,118.4 157.47,118.4 		"/>
		<polygon class="st37" points="295.69,271.23 266.69,271.23 163.56,118.4 192.56,118.4 		"/>
		<polygon class="st37" points="401.48,271.23 386.98,271.23 283.86,118.4 298.36,118.4 		"/>
	</g>
</g>
<g>
	<g>
		<polygon class="st1" points="152.29,343.52 152.29,430.57 69.12,430.57 69.12,325.65 137.8,325.65 		"/>
		<polygon class="st2" points="137.8,325.65 152.29,343.52 133.37,343.52 		"/>
		<path class="st38" d="M138.76,430.57H69.12v-62.99C77.8,389.71,97.25,421.53,138.76,430.57z"/>
	</g>
	<g>
		<g>
			<path class="st7" d="M119.49,396.38c0.05-4.94,1.25-9.91,3.72-14.25c0.61-1.08,1.34-2.12,2.06-3.09c0.69-0.95,1.3-1.97,1.79-3.04
				c1-2.13,1.54-4.47,1.62-6.82c0.03-2.35-0.32-4.71-1.18-6.9c-0.84-2.19-2.12-4.21-3.75-5.9c-3.24-3.4-7.88-5.41-12.58-5.39
				c-4.7-0.07-9.34,1.92-12.61,5.27c-1.62,1.68-2.95,3.66-3.82,5.83c-0.85,2.17-1.29,4.51-1.24,6.86c0.04,2.34,0.57,4.67,1.52,6.81
				c0.47,1.07,1.06,2.1,1.74,3.05c0.7,0.99,1.42,2.03,2.04,3.1c2.5,4.29,3.9,9.26,3.84,14.23h-0.95c-0.06-4.79-1.55-9.49-3.99-13.58
				c-0.62-1.03-1.29-1.99-2.01-2.97c-0.74-1.02-1.39-2.11-1.92-3.26c-1.06-2.3-1.63-4.82-1.69-7.35c-0.07-2.53,0.4-5.07,1.31-7.43
				c0.93-2.36,2.36-4.51,4.13-6.32c3.55-3.61,8.59-5.74,13.66-5.64c5.07,0,10.07,2.21,13.53,5.87c1.74,1.82,3.11,4,4,6.36
				c0.9,2.36,1.27,4.89,1.23,7.41c-0.1,2.52-0.69,5.02-1.77,7.29c-0.53,1.14-1.18,2.23-1.94,3.23c-0.74,0.98-1.42,1.92-2.03,2.96
				c-2.42,4.11-3.65,8.89-3.76,13.68L119.49,396.38z"/>
			<line class="st7" x1="101.37" y1="403.29" x2="101.37" y2="401.64"/>
			<path class="st7" d="M120.7,407.46c-0.34,0.94-0.85,1.83-1.52,2.59c-0.68,0.74-1.5,1.38-2.41,1.83
				c-0.92,0.45-1.92,0.72-2.94,0.78c-1.02,0.04-1.9,0.03-2.86,0.03l-1.41-0.01c-0.46,0-0.94,0-1.47-0.04
				c-1.02-0.1-2.01-0.39-2.92-0.86c-0.9-0.48-1.7-1.12-2.36-1.89c-0.64-0.78-1.14-1.68-1.45-2.63l0.89-0.32
				c0.65,1.64,1.91,3,3.47,3.77c0.78,0.37,1.62,0.61,2.48,0.68c0.42,0.03,0.88,0.03,1.36,0.02l1.41-0.01
				c0.92-0.01,1.92,0.02,2.79-0.01c0.86-0.03,1.71-0.27,2.5-0.62c1.58-0.71,2.87-2.04,3.57-3.66L120.7,407.46z"/>
			<line class="st7" x1="120.75" y1="401.77" x2="120.75" y2="402.99"/>
			<path class="st7" d="M101.37,397.53v-0.5c0-0.36,0.29-0.65,0.65-0.65h18.08c0.36,0,0.65,0.29,0.65,0.65v0.53"/>
			<path class="st7" d="M121.72,401.98c-6.96,0.08-13.99,0.14-20.99,0.14l-0.47,0l0-0.47l-0.02-4.11l0-0.49l0.5,0l20.65,0.02l0.47,0
				l0,0.47C121.87,399.01,121.81,400.53,121.72,401.98z M121.05,401.31c-0.08-1.29-0.14-2.52-0.14-3.78l0.47,0.47l-20.65,0.02
				l0.49-0.49l-0.02,4.11l-0.47-0.47C107.51,401.16,114.24,401.23,121.05,401.31z"/>
			<path class="st7" d="M121.72,407.44c-6.95,0.09-13.98,0.18-20.99,0.19l-0.53,0l0.01-0.53l0.05-4.11l0.01-0.47h0.47h20.65h0.47
				l0,0.47C121.87,404.47,121.81,405.99,121.72,407.44z M121.05,406.76c-0.08-1.29-0.14-2.52-0.14-3.78l0.47,0.47h-20.65l0.47-0.47
				l0.05,4.11l-0.52-0.52C107.5,406.59,114.23,406.67,121.05,406.76z"/>
			<g>
				<path class="st7" d="M113.43,397.56l-0.83-0.06l1.49-19.67c0.08-0.95,0.13-1.96,0.17-2.95c0.03-0.6,0.05-1.18,0.09-1.74
					c-0.43,0.06-0.87,0.05-1.28-0.05c-0.57-0.13-1.11-0.39-1.57-0.74c-0.53,1.21-1.51,2.12-2.65,2.45
					c-0.27,0.08-0.54,0.12-0.81,0.12c0.26,0.9,0.43,1.91,0.59,3.13l1.28,19.45l-0.83,0.05l-1.28-19.43
					c-0.17-1.33-0.35-2.38-0.66-3.31c-0.93-0.23-1.74-0.83-2.11-1.67c-0.17-0.39-0.2-0.74-0.09-1.04c0.09-0.24,0.28-0.44,0.52-0.55
					c0.21-0.09,0.44-0.09,0.64,0c0.21,0.09,0.34,0.26,0.41,0.36c0.55,0.71,0.94,1.41,1.24,2.16c0.29,0.02,0.58,0,0.87-0.08
					c0.99-0.28,1.83-1.14,2.23-2.26c-0.21-0.24-0.39-0.51-0.53-0.79c-0.55-1.07-0.6-2.37-0.14-3.49c0.04-0.1,0.17-0.41,0.49-0.5
					c0.16-0.05,0.34-0.03,0.49,0.05c0.29,0.16,0.41,0.5,0.45,0.64c0.4,1.42,0.46,2.72,0.18,3.86c0.42,0.37,0.93,0.64,1.47,0.77
					c0.36,0.08,0.76,0.09,1.15,0.01c0.03-0.43,0.08-0.84,0.13-1.22c0.12-0.83,0.58-1.64,1.38-1.54c0.3,0.03,0.57,0.2,0.74,0.48
					c0.23,0.37,0.28,0.92,0.11,1.37c-0.27,0.75-0.87,1.26-1.57,1.54c-0.04,0.63-0.07,1.31-0.1,2c-0.04,1-0.09,2.02-0.17,2.98
					L113.43,397.56z M105.77,372.32c0.02,0.01-0.03,0.04-0.04,0.08c-0.03,0.1-0.01,0.25,0.07,0.43c0.18,0.4,0.51,0.73,0.92,0.96
					c-0.23-0.46-0.51-0.9-0.85-1.35C105.82,372.37,105.79,372.33,105.77,372.32z M115.81,370.35c-0.2,0-0.39,0.43-0.45,0.84
					c-0.03,0.24-0.06,0.5-0.09,0.77c0.32-0.21,0.58-0.5,0.72-0.87c0.07-0.21,0.06-0.49-0.04-0.65c-0.05-0.08-0.1-0.09-0.12-0.09
					C115.82,370.35,115.82,370.35,115.81,370.35z M110.83,367.96c-0.25,0.86-0.19,1.82,0.22,2.61c0.01,0.03,0.03,0.05,0.04,0.08
					C111.19,369.84,111.1,368.94,110.83,367.96z"/>
			</g>
			<path class="st7" d="M129.53,376.82c1.67,0.4,3.22,1.09,4.73,1.83c1.52,0.74,3.01,1.53,4.44,2.45c0.22,0.14,0.29,0.44,0.14,0.66
				c-0.12,0.18-0.34,0.26-0.54,0.2c-1.63-0.5-3.19-1.14-4.73-1.83c-1.54-0.69-3.06-1.43-4.44-2.45c-0.22-0.16-0.26-0.46-0.1-0.68
				C129.15,376.85,129.35,376.78,129.53,376.82z"/>
			<path class="st7" d="M83.08,352.39c1.67,0.4,3.22,1.09,4.73,1.83c1.52,0.74,3.01,1.53,4.44,2.45c0.22,0.14,0.29,0.44,0.14,0.66
				c-0.12,0.18-0.34,0.26-0.54,0.2c-1.63-0.5-3.19-1.14-4.73-1.83c-1.54-0.69-3.06-1.43-4.44-2.45c-0.22-0.16-0.26-0.46-0.1-0.68
				C82.7,352.41,82.9,352.35,83.08,352.39z"/>
			<path class="st7" d="M82.92,383.2c1.25-1.18,2.67-2.1,4.12-2.97c1.45-0.87,2.93-1.69,4.48-2.38c0.24-0.11,0.52,0,0.63,0.24
				c0.09,0.2,0.03,0.43-0.13,0.56c-1.31,1.09-2.7,2.05-4.12,2.97c-1.42,0.91-2.87,1.78-4.48,2.38c-0.25,0.09-0.53-0.03-0.62-0.28
				C82.73,383.53,82.78,383.33,82.92,383.2z"/>
			<path class="st7" d="M127.91,355.09c1.25-1.18,2.67-2.1,4.12-2.97c1.45-0.87,2.93-1.69,4.48-2.38c0.24-0.11,0.52,0,0.63,0.24
				c0.09,0.2,0.03,0.43-0.13,0.56c-1.31,1.09-2.7,2.05-4.12,2.97c-1.42,0.91-2.87,1.78-4.48,2.38c-0.25,0.09-0.53-0.03-0.62-0.28
				C127.72,355.42,127.78,355.22,127.91,355.09z"/>
			<path class="st7" d="M110.52,346.57c-0.32-1.69-0.33-3.38-0.28-5.07c0.05-1.69,0.16-3.37,0.41-5.06c0.04-0.26,0.28-0.44,0.55-0.4
				c0.22,0.03,0.38,0.21,0.4,0.41c0.21,1.69,0.28,3.38,0.28,5.07c0,1.69-0.05,3.37-0.41,5.06c-0.06,0.26-0.31,0.43-0.58,0.37
				C110.7,346.91,110.56,346.75,110.52,346.57z"/>
		</g>
	</g>
</g>
<g>
	<g>
		<path class="st10" d="M231.73,169.37l-3.83-0.67l-5.53-0.97l-2.93-0.51c-0.33-0.06-0.64-0.18-0.92-0.35
			c-0.07-0.04-0.15-0.09-0.21-0.14l-66.8-49.41c-1.53-1.14-1.86-3.31-0.72-4.85l2.21-2.99l1.26-1.7c1.14-1.53,3.31-1.86,4.84-0.72
			l59.83,44.25l6.97,5.16c0.07,0.05,0.13,0.11,0.19,0.16c0.25,0.22,0.45,0.49,0.6,0.78l1.27,2.49l2.18,4.28l2.21,4.35
			C232.56,168.96,232.2,169.45,231.73,169.37z"/>
		<path class="st39" d="M227.96,159.9c-1.61,2.51-3.48,5.21-5.59,7.83l-2.93-0.51c-0.33-0.06-0.64-0.18-0.92-0.35
			c-0.07-0.04-0.15-0.09-0.21-0.14l-66.8-49.41c-1.53-1.14-1.86-3.31-0.72-4.85l2.21-2.99c9.38,9.81,39.93,39.68,65.93,41.83
			l6.97,5.16c0.07,0.05,0.13,0.11,0.19,0.16c0.25,0.22,0.45,0.49,0.6,0.78L227.96,159.9z"/>
		
			<rect x="155.38" y="116.1" transform="matrix(0.5947 -0.8039 0.8039 0.5947 -28.471 177.4444)" class="st40" width="12.76" height="1.73"/>
		<path class="st41" d="M226.09,156.63c0.24,0.22,0.45,0.49,0.6,0.78l3.44,6.77l2.21,4.35c0.22,0.43-0.15,0.92-0.62,0.83l-3.83-0.67
			l-8.46-1.48c-0.33-0.06-0.64-0.18-0.92-0.34L226.09,156.63z"/>
		<path class="st10" d="M230.14,164.18l2.21,4.35c0.22,0.43-0.15,0.92-0.62,0.83l-3.83-0.67L230.14,164.18z"/>
		<path class="st42" d="M171.77,120.16c-1.32-0.64-2.5,1.08-1.41,2.07c6.25,5.64,17.65,15.24,20.52,12.98
			C193.76,132.92,179.9,124.13,171.77,120.16z"/>
	</g>
</g>
<g>
	<g>
		<path class="st4" d="M373.65,149.35c-0.36,1.01-1.59,1.4-2.48,0.81l-4.38-2.92c0,0-4.14,12.15-12.52,16.86
			c-1.35,0.76-3.02,0.64-4.3-0.21l-3.18-2.12l-7.24,5.57c-0.54,0.41-1.29-0.09-1.11-0.74l2.34-8.83l-3.17-2.12
			c-1.29-0.85-2.04-2.35-1.86-3.89c1.12-9.55,10.73-18.04,10.73-18.04l-4.38-2.92c-0.89-0.6-1.01-1.88-0.21-2.6
			c3.33-2.99,6.78-4.61,10.03-5.39c1.47-0.35,2.93-0.52,4.38-0.51c7.01,0.03,13.49,4.06,16.67,10.24c0.86,1.68,1.47,3.52,1.79,5.48
			C375.29,141.32,375.13,145.12,373.65,149.35z"/>
		<path class="st43" d="M372.97,132.54c-8.1,14.41-22.25,33.95-29.57,25.63c-7.1-8.06,4.32-25.26,12.9-35.87
			C363.31,122.33,369.79,126.36,372.97,132.54z"/>
	</g>
	<g>
		<path class="st44" d="M367.44,92.21c-0.55,3.65-11.54,20.18-11.54,20.18c-1.39-2.52-3.89-3.9-6.17-4.65
			c-1.56-0.52-3.03-0.74-3.96-0.84c-0.48-0.05-0.75-0.58-0.51-1c4.81-8.21,10.94-11.53,15.54-12.86
			C364.66,91.92,367.44,92.21,367.44,92.21z"/>
		<path class="st45" d="M367.44,92.21c-0.55,3.65-11.54,20.18-11.54,20.18c-1.39-2.52-3.89-3.9-6.17-4.65
			c6.88-4.46,9.82-10.35,11.07-14.7C364.66,91.92,367.44,92.21,367.44,92.21z"/>
	</g>
	<g>
		<path class="st44" d="M392.6,137.43c-0.29,0.39-0.89,0.34-1.12-0.08c-0.59-1.09-1.74-2.94-3.43-4.51
			c-1.45-1.34-3.31-2.48-5.54-2.72c0,0,11.02-16.51,14.17-18.43c0,0,1.56,2.85,1.89,7.41C398.91,123.81,397.95,130.34,392.6,137.43z
			"/>
		<path class="st45" d="M398.57,119.1c-4.29,3.51-8.71,8.23-10.52,13.74c-1.45-1.34-3.31-2.48-5.54-2.72
			c0,0,11.02-16.51,14.17-18.43C396.68,111.69,398.24,114.54,398.57,119.1z"/>
	</g>
	<path class="st44" d="M359.76,114.72c0,0-4.14,4.09-3.81,5.72c0.33,1.63,17.33,12.96,19.29,12.85c1.96-0.11,3.81-5.72,3.81-5.72
		L359.76,114.72z"/>
	<path class="st10" d="M405.76,87.06c-0.39,9.07-4.75,22.39-20.07,40.07c-0.91,1.05-1.87,2.12-2.86,3.21
		c-1.12,1.23-2.98,1.45-4.36,0.54l-21.38-14.25c-1.39-0.92-1.89-2.72-1.19-4.24c6.84-14.75,13.83-24.21,20.24-30.22
		c3.9-3.67,7.57-6.06,10.87-7.6c6.46-3.03,11.43-2.79,13.67-2.43c0.85,0.13,1.6,0.63,2.04,1.36
		C403.92,75.42,406.06,79.93,405.76,87.06z"/>
	<path class="st46" d="M385.69,127.13c-0.91,1.05-1.87,2.12-2.86,3.21c-1.12,1.23-2.98,1.45-4.36,0.54l-21.38-14.25
		c-1.39-0.92-1.89-2.72-1.19-4.24c6.84-14.75,13.83-24.21,20.24-30.22C373.76,93.84,370.96,117.88,385.69,127.13z"/>
	<path class="st44" d="M369.01,123l5.04-0.61c0.47-0.06,0.86-0.37,1.03-0.8l7.29-19.26c0.1-0.27-0.23-0.5-0.45-0.3l-14.97,14.15
		c-0.34,0.32-0.47,0.81-0.35,1.26l1.39,4.89C368.12,122.77,368.55,123.05,369.01,123z"/>
	<path class="st42" d="M390.69,90.1c0.47-3.2,3.84-5.12,6.81-3.84c3.06,1.33,6.17,3.32,6.24,5.92c0.12,5.15-12.17,27.45-15,27.61
		C386.62,119.92,389.22,100.19,390.69,90.1z"/>
	<path class="st1" d="M396.57,93.1c-2.13,3.21-6.46,4.07-9.67,1.94c-3.21-2.13-4.07-6.46-1.94-9.67c2.13-3.21,6.46-4.07,9.67-1.94
		C397.84,85.56,398.71,89.89,396.57,93.1z"/>
	<g>
		<path class="st44" d="M405.76,87.06L387,74.56c0.47-0.22,0.93-0.42,1.38-0.61c5.8-2.38,10.22-2.14,12.3-1.81
			c0.85,0.13,1.6,0.63,2.04,1.36c0.52,0.84,1.22,2.16,1.81,3.98C405.32,79.84,405.93,83.03,405.76,87.06z"/>
		<path class="st45" d="M405.76,87.06L387,74.56c0.47-0.22,0.93-0.42,1.38-0.61c4.49,2.05,10.75,4.21,16.15,3.53
			C405.32,79.84,405.93,83.03,405.76,87.06z"/>
	</g>
</g>
<g>
	<g>
		<g>
			<path class="st1" d="M432.03,182.66c-0.04,0.06-0.08,0.11-0.13,0.16l-28.52,28.52c-0.21,0.22-0.49,0.32-0.77,0.32
				c-0.27,0-0.55-0.1-0.76-0.32c-0.47-0.47-1.24-0.47-1.71,0l-0.37,0.37c-0.84,0.85-2.25,0.8-3.03-0.15
				c-0.67-0.83-0.53-2.06,0.23-2.82l0.28-0.28c0.24-0.24,0.35-0.54,0.35-0.86c0-0.3-0.11-0.62-0.35-0.85
				c-0.42-0.42-0.42-1.11,0-1.53l14.98-14.98l11.98-11.98l1.56-1.56c0.43-0.43,1.11-0.43,1.53,0l4.6,4.59
				C432.27,181.67,432.31,182.24,432.03,182.66z"/>
			<path class="st2" d="M432.03,182.66c-0.04,0.06-0.08,0.11-0.13,0.16l-18.64,18.64c0.56-4.01-0.11-8.01-1.03-11.22l11.98-11.98
				L432.03,182.66z"/>
		</g>
		<g>
			<path class="st7" d="M427.86,189.63l1.13,1.13c0.25,0.25,0.25,0.65,0,0.9l-0.68,0.68l-1.62,1.63c-0.25,0.25-0.66,0.25-0.91,0
				l-11.15-11.15c-0.25-0.25-0.25-0.66,0-0.91l2.31-2.31c0.24-0.24,0.65-0.24,0.9,0l1.13,1.14c0.79,0.79,2.15,0.5,2.53-0.55
				c0.19-0.55,0.42-1.11,0.67-1.65c1.02-2.33,2.41-4.48,3.54-5.61c2.75-2.75,7.21-2.75,9.96-0.01c2.75,2.75,2.75,7.21,0,9.96
				c-1.4,1.41-4.35,3.19-7.26,4.22C427.35,187.47,427.07,188.83,427.86,189.63z"/>
			<path class="st47" d="M428.31,192.34l-1.62,1.63c-0.25,0.25-0.66,0.25-0.91,0l-11.15-11.15c-0.25-0.25-0.25-0.66,0-0.91
				l2.31-2.31c0.24-0.24,0.65-0.24,0.9,0l1.13,1.14c0.79,0.79,2.15,0.5,2.53-0.55c0.19-0.55,0.42-1.11,0.67-1.65
				C421.55,182.94,422.4,188.36,428.31,192.34z"/>
			<path class="st48" d="M431.53,174.8c0.63,0.94,1.22,2.23,1.33,3.81c0.07,1.03,1.47,1.32,1.97,0.42c1.32-2.35,1.83-5.09-2.2-5.85
				C431.71,173.02,431.01,174.03,431.53,174.8z"/>
		</g>
	</g>
</g>
<path class="st4" d="M220.54,236.55l-17.8,7.03c-0.26,0.1-0.25,0.48,0.01,0.57l7.73,2.66c0.09,0.03,0.16,0.1,0.19,0.19l2.66,7.73
	c0.09,0.27,0.47,0.28,0.57,0.01l7.03-17.8C221.03,236.69,220.79,236.45,220.54,236.55z"/>
<g>
	<g>
		<g>
			<path class="st12" d="M337.1,138.41c-1.65,2.59-3.37,5.14-5.12,7.67c-1.71,2.55-3.54,5.01-5.31,7.52
				c-1.77,2.5-3.62,4.96-5.47,7.41c-1.88,2.42-3.76,4.85-5.76,7.2c-0.18,0.21-0.5,0.24-0.71,0.06c-0.19-0.16-0.23-0.44-0.1-0.64
				c1.61-2.62,3.34-5.16,5.07-7.7c1.75-2.52,3.52-5.03,5.36-7.49c1.84-2.46,3.62-4.96,5.52-7.37c1.86-2.44,3.75-4.86,5.71-7.23
				c0.18-0.21,0.49-0.24,0.71-0.07C337.2,137.92,337.24,138.2,337.1,138.41z"/>
		</g>
		<g>
			<path class="st12" d="M372.02,157.34c-2.77,4.27-5.62,8.49-8.47,12.7l-8.67,12.57c-2.94,4.16-5.83,8.34-8.81,12.47
				c-2.96,4.14-5.93,8.27-8.97,12.36c-0.16,0.22-0.48,0.27-0.7,0.1c-0.21-0.16-0.26-0.46-0.12-0.68c2.78-4.26,5.63-8.48,8.49-12.69
				c2.85-4.22,5.77-8.38,8.65-12.58l8.79-12.48c2.97-4.14,5.94-8.27,8.99-12.35c0.17-0.22,0.48-0.27,0.7-0.1
				C372.11,156.82,372.16,157.12,372.02,157.34z"/>
		</g>
		<g>
			<path class="st12" d="M351.12,173.88c-1.08,1.86-2.24,3.66-3.41,5.46c-1.17,1.8-2.39,3.56-3.59,5.34
				c-1.25,1.75-2.46,3.51-3.73,5.24c-1.27,1.73-2.55,3.45-3.9,5.13c-0.17,0.22-0.49,0.25-0.7,0.08c-0.2-0.16-0.24-0.43-0.12-0.64
				c1.09-1.85,2.25-3.66,3.42-5.46c1.16-1.8,2.39-3.56,3.58-5.34c1.23-1.75,2.46-3.51,3.72-5.25c1.27-1.73,2.55-3.45,3.9-5.12
				c0.17-0.22,0.49-0.25,0.71-0.07C351.19,173.39,351.24,173.67,351.12,173.88z"/>
		</g>
	</g>
	<g>
		<path class="st33" d="M208.23,93.24c-4.01,0-7.28-3.27-7.28-7.28c0-4.01,3.27-7.28,7.28-7.28s7.28,3.26,7.28,7.28
			C215.51,89.97,212.24,93.24,208.23,93.24z M208.23,79.91c-3.33,0-6.05,2.71-6.05,6.05c0,3.33,2.71,6.05,6.05,6.05
			c3.33,0,6.05-2.71,6.05-6.05C214.27,82.63,211.56,79.91,208.23,79.91z"/>
	</g>
	<g>
		<path class="st33" d="M221,77.4c0,2-1.62,3.62-3.62,3.62s-3.62-1.62-3.62-3.62s1.62-3.62,3.62-3.62S221,75.4,221,77.4z"/>
	</g>
	<g>
		<path class="st33" d="M108.49,132.28c0,1.41-1.14,2.56-2.56,2.56s-2.56-1.14-2.56-2.56c0-1.41,1.14-2.56,2.56-2.56
			S108.49,130.86,108.49,132.28z"/>
	</g>
	<g class="st0">
		<g>
			<path class="st12" d="M83.14,94.3c-4.82,0-8.74-3.92-8.74-8.74c0-4.82,3.92-8.74,8.74-8.74c4.82,0,8.74,3.92,8.74,8.74
				C91.88,90.37,87.96,94.3,83.14,94.3z M83.14,78.82c-3.72,0-6.74,3.02-6.74,6.74c0,3.72,3.02,6.74,6.74,6.74
				c3.72,0,6.74-3.02,6.74-6.74C89.88,81.84,86.86,78.82,83.14,78.82z"/>
		</g>
	</g>
	<g class="st0">
		<g>
			<path class="st12" d="M461.34,144.55c0.5,3.26-2.27,6.02-5.53,5.52c-2.03-0.31-3.69-1.97-4-4c-0.5-3.26,2.27-6.02,5.53-5.53
				C459.37,140.86,461.03,142.52,461.34,144.55z"/>
		</g>
	</g>
	<g class="st0">
		<g>
			<path class="st12" d="M321.11,69.25c-2.77,0-5.03-2.26-5.03-5.03c0-2.77,2.26-5.03,5.03-5.03c2.77,0,5.03,2.26,5.03,5.03
				C326.14,66.99,323.88,69.25,321.11,69.25z M321.11,60.6c-1.99,0-3.62,1.62-3.62,3.62c0,1.99,1.62,3.62,3.62,3.62
				c1.99,0,3.62-1.62,3.62-3.62C324.72,62.22,323.1,60.6,321.11,60.6z"/>
		</g>
	</g>
	<g class="st0">
		<g>
			<path class="st12" d="M467.47,218.65c0,1.73-1.4,3.14-3.14,3.14c-1.73,0-3.14-1.4-3.14-3.14c0-1.73,1.4-3.14,3.14-3.14
				C466.06,215.51,467.47,216.92,467.47,218.65z"/>
		</g>
	</g>
	<g class="st0">
		<g>
			<path class="st12" d="M197.34,336.27c0,1.73-1.4,3.14-3.14,3.14c-1.73,0-3.14-1.4-3.14-3.14c0-1.73,1.4-3.14,3.14-3.14
				C195.94,333.14,197.34,334.54,197.34,336.27z"/>
		</g>
	</g>
	<g class="st0">
		<g>
			<path class="st12" d="M186.83,334.73c-1.5,0-2.72-1.22-2.72-2.72c0-1.5,1.22-2.72,2.72-2.72c1.5,0,2.72,1.22,2.72,2.72
				C189.55,333.51,188.33,334.73,186.83,334.73z M186.83,330.3c-0.95,0-1.72,0.77-1.72,1.72c0,0.95,0.77,1.72,1.72,1.72
				c0.95,0,1.72-0.77,1.72-1.72C188.55,331.07,187.78,330.3,186.83,330.3z"/>
		</g>
	</g>
	<g>
		<path class="st1" d="M446.37,328.77c0,1.73-1.4,3.14-3.14,3.14c-1.73,0-3.14-1.4-3.14-3.14c0-1.73,1.4-3.14,3.14-3.14
			C444.97,325.64,446.37,327.04,446.37,328.77z"/>
	</g>
	<g>
		<path class="st1" d="M420.99,311.62c-2.01,0-3.64-1.63-3.64-3.64s1.63-3.64,3.64-3.64c2,0,3.64,1.63,3.64,3.64
			S422.99,311.62,420.99,311.62z M420.99,305.35c-1.45,0-2.64,1.18-2.64,2.64s1.18,2.64,2.64,2.64c1.45,0,2.64-1.18,2.64-2.64
			S422.44,305.35,420.99,305.35z"/>
	</g>
	<g>
		<path class="st1" d="M434.42,289.03c0,1.14-0.92,2.06-2.06,2.06c-1.14,0-2.06-0.92-2.06-2.06c0-1.14,0.92-2.06,2.06-2.06
			C433.5,286.97,434.42,287.89,434.42,289.03z"/>
	</g>
	<g class="st0">
		<g>
			<circle class="st12" cx="329.32" cy="58.22" r="2.56"/>
		</g>
	</g>
	<g class="st0">
		<g>
			<circle class="st12" cx="72.89" cy="97.95" r="2.56"/>
		</g>
	</g>
	<g class="st0">
		<g>
			<path class="st12" d="M364.11,354.4c-4.02,0-7.29-3.27-7.29-7.29s3.27-7.29,7.29-7.29s7.29,3.27,7.29,7.29
				S368.13,354.4,364.11,354.4z M364.11,341.82c-2.92,0-5.29,2.37-5.29,5.29c0,2.92,2.37,5.29,5.29,5.29c2.92,0,5.29-2.37,5.29-5.29
				C369.4,344.19,367.02,341.82,364.11,341.82z"/>
		</g>
	</g>
	<g class="st0">
		<g>
			<circle class="st12" cx="412.18" cy="394.4" r="2.83"/>
		</g>
	</g>
	<g class="st0">
		<g>
			<path class="st12" d="M51.11,328.54c-4.02,0-7.29-3.27-7.29-7.29c0-4.02,3.27-7.29,7.29-7.29s7.29,3.27,7.29,7.29
				C58.4,325.27,55.13,328.54,51.11,328.54z M51.11,315.96c-2.92,0-5.29,2.37-5.29,5.29c0,2.92,2.37,5.29,5.29,5.29
				s5.29-2.37,5.29-5.29C56.4,318.33,54.02,315.96,51.11,315.96z"/>
		</g>
	</g>
	<g class="st0">
		<g>
			<path class="st12" d="M63.74,310.65c0,2.07-1.68,3.76-3.76,3.76c-2.07,0-3.76-1.68-3.76-3.76c0-2.07,1.68-3.76,3.76-3.76
				C62.05,306.9,63.74,308.58,63.74,310.65z"/>
		</g>
	</g>
	<g>
		<circle class="st33" cx="420.72" cy="149.4" r="2.94"/>
	</g>
	<g>
		<path class="st12" d="M360.34,189.98c-1.87,0-3.39-1.52-3.39-3.39c0-1.87,1.52-3.39,3.39-3.39c1.87,0,3.39,1.52,3.39,3.39
			C363.73,188.46,362.21,189.98,360.34,189.98z M360.34,183.91c-1.48,0-2.68,1.2-2.68,2.68c0,1.48,1.2,2.68,2.68,2.68
			c1.48,0,2.68-1.2,2.68-2.68C363.03,185.11,361.82,183.91,360.34,183.91z"/>
	</g>
	<g>
		<path class="st12" d="M355.46,190.75c-0.62,0.09-1.2-0.34-1.29-0.96c-0.09-0.62,0.34-1.2,0.96-1.29c0.62-0.09,1.2,0.34,1.29,0.96
			C356.51,190.08,356.08,190.66,355.46,190.75z"/>
	</g>
	<g>
		<path class="st12" d="M328.28,159.34c0,0.94-0.76,1.7-1.7,1.7c-0.94,0-1.7-0.76-1.7-1.7s0.76-1.7,1.7-1.7
			C327.52,157.64,328.28,158.4,328.28,159.34z"/>
	</g>
	<g>
		<path class="st12" d="M333.39,137.59c0,0.66-0.54,1.2-1.2,1.2c-0.66,0-1.2-0.54-1.2-1.2c0-0.66,0.54-1.2,1.2-1.2
			C332.85,136.39,333.39,136.93,333.39,137.59z"/>
	</g>
	<g>
		<path class="st12" d="M329.64,158.39c-0.6,0-1.09-0.49-1.09-1.09s0.49-1.09,1.09-1.09s1.08,0.49,1.08,1.09
			S330.24,158.39,329.64,158.39z M329.64,156.71c-0.33,0-0.59,0.27-0.59,0.59c0,0.33,0.27,0.59,0.59,0.59s0.59-0.27,0.59-0.59
			C330.24,156.98,329.97,156.71,329.64,156.71z"/>
	</g>
</g>
</svg>
