<?xml version="1.0" encoding="utf-8"?>
<!-- Generator: Adobe Illustrator 27.1.1, SVG Export Plug-In . SVG Version: 6.00 Build 0)  -->
<svg version="1.1" xmlns="http://www.w3.org/2000/svg" xmlns:xlink="http://www.w3.org/1999/xlink" x="0px" y="0px"
	 viewBox="0 0 993 840" style="enable-background:new 0 0 993 840;" xml:space="preserve">
<style type="text/css">
	.st0{fill:#282C34;stroke:#FFFFFF;stroke-miterlimit:10;}
	.st1{fill:#2C3E50;}
	.st2{fill:#FFFFFF;}
	.st3{fill:#2D5BBF;}
	.st4{fill:#E4EEFA;stroke:#FFFFFF;stroke-miterlimit:10;}
	.st5{fill:#FFFFFF;stroke:#FFFFFF;stroke-miterlimit:10;}
	.st6{fill:#E3EDFB;}
	.st7{fill:#ABC1E2;}
	.st8{fill:#D1E0F2;}
	.st9{fill:#2C3E50;stroke:#FFFFFF;stroke-miterlimit:10;}
	.st10{fill:#457AE5;stroke:#FFFFFF;stroke-miterlimit:10;}
	.st11{fill:#282C34;stroke:#BF0A00;stroke-miterlimit:10;}
	.st12{fill:#FFFFFF;stroke:#BF0A00;stroke-miterlimit:10;}
	.st13{fill:url(#SVGID_1_);stroke:#FFFFFF;stroke-miterlimit:10;}
	.st14{fill:#282C34;}
	.st15{fill:#FFADAE;stroke:#FFFFFF;stroke-miterlimit:10;}
	.st16{opacity:0.45;fill:#2C3E50;stroke:#FFFFFF;stroke-miterlimit:10;}
	.st17{fill:#341751;stroke:#FFFFFF;stroke-miterlimit:10;}
	.st18{opacity:0.15;stroke:#FFFFFF;stroke-miterlimit:10;}
	.st19{fill:url(#SVGID_00000002360985520210390450000018142133434363811745_);stroke:#FFFFFF;stroke-miterlimit:10;}
	.st20{fill:url(#SVGID_00000102509736880268616610000006612731420467877293_);stroke:#FFFFFF;stroke-miterlimit:10;}
	.st21{fill:url(#SVGID_00000049916925206252987220000005801730468592751798_);stroke:#FFFFFF;stroke-miterlimit:10;}
	.st22{opacity:0.15;fill:#FFFFFF;stroke:#FFFFFF;stroke-miterlimit:10;}
	.st23{opacity:0.15;fill:#282C34;stroke:#FFFFFF;stroke-miterlimit:10;}
</style>
<g id="Page">
</g>
<g id="Illustration">
	<g id="Cloud">
		<path class="st0" d="M216.64,336.55c0-50.84,41.51-92.05,92.71-92.05c16.37,0,31.75,4.22,45.1,11.62
			C358.3,172.01,428.19,105,513.84,105c74.17,0,136.52,50.25,154.4,118.33c11.24-8.82,25.44-14.09,40.88-14.09
			c36.43,0,65.97,29.33,65.97,65.5c0,9.1-1.87,17.76-5.25,25.64c7.54-2.92,15.74-4.53,24.31-4.53c36.92,0,66.85,29.72,66.85,66.37
			c0,34.34-26.26,62.58-59.92,66.02l0.03,0.35H309.13l0,0C258.03,428.48,216.64,387.32,216.64,336.55z"/>
	</g>
	<g id="Line_1_">
		<g>
			<path class="st1" d="M731.84,356.81h-3.51v-2.73h0.78v-1.64h2.73V356.81z M723.18,356.81h-5.15v-2.73h5.15V356.81z
				 M712.88,356.81h-5.15v-2.73h5.15V356.81z M702.58,356.81h-5.15v-2.73h5.15V356.81z M692.28,356.81h-5.15v-2.73h5.15V356.81z
				 M681.98,356.81h-5.15v-2.73h5.15V356.81z M671.69,356.81h-5.15v-2.73h5.15V356.81z M661.39,356.81h-5.15v-2.73h5.15V356.81z
				 M651.09,356.81h-5.15v-2.73h5.15V356.81z M731.84,347.29h-2.73v-5.15h2.73V347.29z M731.84,336.99h-2.73v-5.15h2.73V336.99z
				 M731.84,326.69h-2.73v-5.15h2.73V326.69z M731.84,316.4h-2.73v-5.15h2.73V316.4z M731.84,306.1h-2.73v-5.15h2.73V306.1z
				 M731.84,295.8h-2.73v-5.15h2.73V295.8z M731.84,285.5h-2.73v-5.15h2.73V285.5z M731.84,275.2h-2.73v-5.15h2.73V275.2z
				 M731.84,264.91h-2.73v-5.15h2.73V264.91z M727.9,258.55h-5.15v-2.73h5.15V258.55z M717.6,258.55h-5.15v-2.73h5.15V258.55z
				 M707.3,258.55h-5.15v-2.73h5.15V258.55z M697,258.55h-5.15v-2.73H697V258.55z M686.7,258.55h-5.15v-2.73h5.15V258.55z
				 M676.41,258.55h-5.15v-2.73h5.15V258.55z M666.11,258.55h-5.15v-2.73h5.15V258.55z M655.81,258.55h-5.15v-2.73h5.15V258.55z
				 M645.51,258.55h-5.15v-2.73h5.15V258.55z M635.21,258.55h-5.15v-2.73h5.15V258.55z M624.92,258.55h-5.15v-2.73h5.15V258.55z
				 M614.62,258.55h-5.15v-2.73h5.15V258.55z M604.32,258.55h-5.15v-2.73h5.15V258.55z M594.02,258.55h-5.15v-2.73h5.15V258.55z
				 M583.72,258.55h-5.15v-2.73h5.15V258.55z M573.42,258.55h-5.15v-2.73h5.15V258.55z M563.13,258.55h-5.15v-2.73h5.15V258.55z"/>
		</g>
		<g>
			<g>
				<rect x="623.26" y="485.8" class="st1" width="2.58" height="2.73"/>
			</g>
			<g>
				<path class="st1" d="M722.93,488.54h-5.39v-2.73h5.39V488.54z M712.14,488.54h-5.39v-2.73h5.39V488.54z M701.35,488.54h-5.39
					v-2.73h5.39V488.54z M690.57,488.54h-5.39v-2.73h5.39V488.54z M679.78,488.54h-5.39v-2.73h5.39V488.54z M668.99,488.54h-5.39
					v-2.73h5.39V488.54z M658.2,488.54h-5.39v-2.73h5.39V488.54z M647.41,488.54h-5.39v-2.73h5.39V488.54z M636.62,488.54h-5.39
					v-2.73h5.39V488.54z"/>
			</g>
			<g>
				<polygon class="st1" points="732.27,488.54 728.33,488.54 728.33,485.8 729.53,485.8 729.53,484.6 732.27,484.6 				"/>
			</g>
			<g>
				<path class="st1" d="M732.27,478.84h-2.73v-5.76h2.73V478.84z M732.27,467.31h-2.73v-5.76h2.73V467.31z M732.27,455.79h-2.73
					v-5.76h2.73V455.79z"/>
			</g>
			<g>
				<rect x="729.53" y="441.69" class="st1" width="2.73" height="2.57"/>
			</g>
		</g>
		<circle class="st2" cx="549.29" cy="256.54" r="14.37"/>
		<circle class="st3" cx="646.16" cy="355.23" r="5.79"/>
		<circle class="st3" cx="730.69" cy="445.77" r="5.79"/>
		<g>
			<path class="st1" d="M267.58,571.14h-2.73v-5.15h2.73V571.14z M267.58,560.84h-2.73v-5.15h2.73V560.84z M267.58,550.55h-2.73
				v-5.15h2.73V550.55z M267.58,540.25h-2.73v-5.15h2.73V540.25z M267.58,529.95h-2.73v-5.15h2.73V529.95z M267.58,519.65h-2.73
				v-5.15h2.73V519.65z M267.58,509.35h-2.73v-5.15h2.73V509.35z M267.58,499.06h-2.73v-5.15h2.73V499.06z M267.58,488.76h-2.73
				v-5.15h2.73V488.76z M267.58,478.46h-2.73v-5.15h2.73V478.46z M267.58,468.16h-2.73v-5.15h2.73V468.16z M374.2,465.94l-2.1-0.07
				l0.05-1.34h-0.68v-4.46h2.73V465.94z M366.95,465.69l-5.15-0.18l0.09-2.73l5.15,0.18L366.95,465.69z M356.66,465.34l-5.15-0.18
				l0.09-2.73l5.15,0.18L356.66,465.34z M346.36,464.99l-5.15-0.18l0.09-2.73l5.15,0.18L346.36,464.99z M336.07,464.63l-5.15-0.18
				l0.09-2.73l5.15,0.18L336.07,464.63z M325.78,464.28l-5.15-0.18l0.09-2.73l5.15,0.18L325.78,464.28z M315.49,463.93l-5.15-0.18
				l0.09-2.73l5.15,0.18L315.49,463.93z M305.2,463.58l-5.15-0.18l0.09-2.73l5.15,0.18L305.2,463.58z M294.9,463.23l-5.15-0.18
				l0.09-2.73l5.15,0.18L294.9,463.23z M284.61,462.87l-5.15-0.18l0.09-2.73l5.15,0.18L284.61,462.87z M274.32,462.52l-5.15-0.18
				l0.09-2.73l5.15,0.18L274.32,462.52z M374.2,454.91h-2.73v-5.15h2.73V454.91z M374.2,444.62h-2.73v-5.15h2.73V444.62z
				 M374.2,434.32h-2.73v-5.15h2.73V434.32z M374.2,424.02h-2.73v-5.15h2.73V424.02z M374.2,413.72h-2.73v-5.15h2.73V413.72z
				 M374.2,403.42h-2.73v-5.15h2.73V403.42z M374.2,393.12h-2.73v-5.15h2.73V393.12z"/>
		</g>
		<circle class="st3" cx="373.16" cy="377.23" r="5.79"/>
	</g>
	<g id="Folder">
		<path class="st4" d="M775.88,340.81v-14.05c0-2.43-1.97-4.4-4.4-4.4h-85.17c-2.43,0-4.4,1.97-4.4,4.4v25.21h1.29h92.68V340.81z"/>
		<path class="st0" d="M787.04,336.3v85.39c0,2.49-2.02,4.51-4.51,4.51H676.55c-2.49,0-4.51-2.02-4.51-4.51v-72.52
			c0-2.49,2.02-4.51,4.51-4.51h72.3l6.44-12.87h27.25C785.02,331.8,787.04,333.81,787.04,336.3z"/>
		<path class="st5" d="M698.99,393.62c0-4.71,3.82-8.52,8.52-8.52c1.51,0,2.92,0.39,4.15,1.08c0.35-7.79,6.78-13.99,14.65-13.99
			c6.82,0,12.55,4.65,14.19,10.96c1.03-0.82,2.34-1.3,3.76-1.3c3.35,0,6.07,2.72,6.07,6.07c0,0.84-0.17,1.64-0.48,2.37
			c0.69-0.27,1.45-0.42,2.24-0.42c3.39,0,6.15,2.75,6.15,6.15c0,3.18-2.41,5.79-5.51,6.11l0,0.03H707.5v0
			C702.8,402.13,698.99,398.32,698.99,393.62z"/>
	</g>
	<g id="Letter">
		<path class="st6" d="M621.49,314.04h-40.33c-2.01,0-3.65,1.63-3.65,3.65v53.21c0,2.01,1.63,3.65,3.65,3.65h40.33
			c2.01,0,3.65-1.63,3.65-3.65v-53.21C625.14,315.67,623.51,314.04,621.49,314.04z"/>
		<path class="st2" d="M630.5,321.33h-40.33c-2.01,0-3.65,1.63-3.65,3.65v53.21c0,2.01,1.63,3.65,3.65,3.65h40.33
			c2.01,0,3.65-1.63,3.65-3.65v-53.21C634.15,322.96,632.52,321.33,630.5,321.33z"/>
		<g>
			<g>
				<rect x="595.53" y="335.45" class="st7" width="28.75" height="2.65"/>
			</g>
		</g>
		<g>
			<g>
				<rect x="595.53" y="345.75" class="st7" width="28.75" height="2.65"/>
			</g>
		</g>
		<g>
			<g>
				<rect x="595.53" y="356.05" class="st7" width="28.75" height="2.65"/>
			</g>
		</g>
		<g>
			<g>
				<rect x="595.53" y="366.35" class="st7" width="28.75" height="2.65"/>
			</g>
		</g>
	</g>
	<g id="Laptop">
		<rect x="510.89" y="499.55" class="st3" width="40.13" height="5.39"/>
		<path class="st3" d="M563.82,454.93h75.46c1.99,0,3.3,2.06,2.46,3.86l-20.82,44.58c-0.45,0.95-1.4,1.57-2.46,1.57H543
			c-1.99,0-3.3-2.06-2.46-3.86l20.82-44.58C561.81,455.54,562.77,454.93,563.82,454.93z"/>
		<path class="st8" d="M566.72,457.7h66.31c1.74,0,2.9,1.81,2.16,3.39l-18.3,39.17c-0.39,0.84-1.23,1.38-2.16,1.38h-66.31
			c-1.74,0-2.9-1.81-2.16-3.39l18.3-39.17C564.95,458.24,565.8,457.7,566.72,457.7z"/>
	</g>
	<g id="Table">
		<rect x="392.93" y="516.01" class="st9" width="11.45" height="183.24"/>
		<rect x="671.99" y="516.39" class="st9" width="11.45" height="183.24"/>
		<rect x="352.84" y="504.94" class="st10" width="345.87" height="15.27"/>
		<rect x="694.51" y="504.94" class="st0" width="42.37" height="15.27"/>
	</g>
	<g id="Data">
		<path class="st0" d="M222.38,575.05v-8.81c0-7.64,6.2-13.84,13.84-13.84h57.87c7.64,0,13.84,6.2,13.84,13.84v8.81H222.38z"/>
		<rect x="206.02" y="597.7" class="st0" width="117.63" height="72.34"/>
		<path class="st0" d="M195.01,571.44v31.77c0,1.65,1.34,2.99,2.99,2.99h134.93c1.65,0,2.99-1.34,2.99-2.99v-31.77
			c0-1.65-1.34-2.99-2.99-2.99H198C196.35,568.45,195.01,569.79,195.01,571.44z"/>
		<path class="st5" d="M209.8,587.32L209.8,587.32c0,2.61,2.11,4.72,4.72,4.72h91.21c2.61,0,4.72-2.11,4.72-4.72l0,0
			c0-2.61-2.11-4.72-4.72-4.72h-91.21C211.91,582.6,209.8,584.71,209.8,587.32z"/>
		<circle class="st0" cx="320.83" cy="587.32" r="4.72"/>
		<path class="st0" d="M195.01,616.73v31.77c0,1.65,1.34,2.99,2.99,2.99h134.93c1.65,0,2.99-1.34,2.99-2.99v-31.77
			c0-1.65-1.34-2.99-2.99-2.99H198C196.35,613.74,195.01,615.08,195.01,616.73z"/>
		<path class="st5" d="M209.8,632.61L209.8,632.61c0,2.61,2.11,4.72,4.72,4.72h91.21c2.61,0,4.72-2.11,4.72-4.72v0
			c0-2.61-2.11-4.72-4.72-4.72h-91.21C211.91,627.89,209.8,630.01,209.8,632.61z"/>
		<circle class="st0" cx="320.83" cy="632.61" r="4.72"/>
		<path class="st0" d="M195.01,664.54v31.77c0,1.65,1.34,2.99,2.99,2.99h134.93c1.65,0,2.99-1.34,2.99-2.99v-31.77
			c0-1.65-1.34-2.99-2.99-2.99H198C196.35,661.55,195.01,662.89,195.01,664.54z"/>
		<path class="st5" d="M209.8,680.42L209.8,680.42c0,2.61,2.11,4.72,4.72,4.72h91.21c2.61,0,4.72-2.11,4.72-4.72l0,0
			c0-2.61-2.11-4.72-4.72-4.72h-91.21C211.91,675.7,209.8,677.82,209.8,680.42z"/>
		<circle class="st0" cx="320.83" cy="680.42" r="4.72"/>
		<path class="st0" d="M236.85,561.53L236.85,561.53c0,1.22,0.99,2.2,2.2,2.2h53.47c1.22,0,2.2-0.99,2.2-2.2l0,0
			c0-1.22-0.99-2.2-2.2-2.2h-53.47C237.83,559.33,236.85,560.31,236.85,561.53z"/>
	</g>
	<g id="Video">
		<path class="st11" d="M334.1,325.42v25c0,7.48,6.06,13.54,13.54,13.54h50.34c7.48,0,13.54-6.06,13.54-13.54v-25
			c0-7.48-6.06-13.54-13.54-13.54h-50.34C340.16,311.88,334.1,317.94,334.1,325.42z"/>
		<polygon class="st12" points="361.75,322.94 361.75,353.36 386.63,337.69 		"/>
	</g>
	<g id="Picture">
		<rect x="424.32" y="200.51" class="st4" width="57.6" height="57.6"/>
		<polygon class="st0" points="481.92,246.08 481.92,258.12 424.32,258.12 424.32,228.79 438.58,223.39 450.97,240.08 
			468.19,230.93 		"/>
		<linearGradient id="SVGID_1_" gradientUnits="userSpaceOnUse" x1="447.198" y1="219.3547" x2="459.5802" y2="219.3547">
			<stop  offset="0" style="stop-color:#F68446"/>
			<stop  offset="1" style="stop-color:#F44745"/>
		</linearGradient>
		<circle class="st13" cx="453.39" cy="219.35" r="6.19"/>
	</g>
	<g id="Email">
		<path class="st2" d="M466.19,288.19H500c3.5,0,6.34,2.84,6.34,6.34v36.54c0,3.5-2.84,6.34-6.34,6.34h-33.8
			c-3.5,0-6.34-2.84-6.34-6.34v-36.54C459.86,291.03,462.69,288.19,466.19,288.19z"/>
		<g>
			<g>
				<path class="st14" d="M490.1,326.72c-2.68,1.22-5.01,1.63-8.18,1.64c-7.43,0.02-13.98-5.28-14.01-14.05
					c-0.03-9.13,6.57-17.07,16.68-17.1c7.87-0.03,13.53,5.37,13.55,12.89c0.02,6.53-3.64,10.66-8.47,10.68
					c-2.1,0.01-3.63-1.06-3.86-3.43l-0.09,0c-1.38,2.29-3.39,3.46-5.76,3.46c-2.91,0.01-5.02-2.13-5.03-5.8
					c-0.02-5.46,3.99-10.44,10.44-10.46c1.97-0.01,4.21,0.48,5.33,1.1l-1.32,8.28c-0.44,2.64-0.12,3.85,1.13,3.89
					c1.92,0.04,4.33-2.43,4.32-7.58c-0.02-5.82-3.79-10.32-10.73-10.3c-6.85,0.02-12.82,5.41-12.8,13.96
					c0.02,7.47,4.83,11.71,11.49,11.69c2.28-0.01,4.7-0.51,6.48-1.45L490.1,326.72z M486.06,308.26c-0.36-0.09-0.81-0.18-1.39-0.17
					c-2.95,0.01-5.27,2.93-5.26,6.37c0.01,1.7,0.77,2.77,2.25,2.77c1.66-0.01,3.39-2.11,3.79-4.71L486.06,308.26z"/>
			</g>
		</g>
	</g>
	<g id="Gear">
		<path class="st0" d="M206.85,395.64c-1.05-4.19-2.8-8.39-4.89-12.23l4.19-9.78l-14.68-14.33l-9.78,4.19
			c-3.84-2.1-7.69-3.84-12.23-4.89l-3.49-10.13h-20.62l-3.84,10.13c-4.19,1.05-8.39,2.8-12.23,4.89l-9.79-4.19l-14.33,14.33
			l4.19,9.78c-2.1,3.84-3.84,7.69-4.89,12.23l-10.13,3.84v20.62l10.13,3.84c1.05,4.19,2.8,8.39,4.89,12.23l-4.19,9.78l14.68,14.33
			l9.78-4.19c3.84,2.1,7.69,3.84,12.23,4.89l3.84,10.13h20.27l3.84-10.13c4.19-1.05,8.39-2.8,12.23-4.89l9.78,4.19l14.68-14.33
			l-4.19-9.78c2.1-3.84,3.84-7.69,4.89-12.23l10.13-3.84v-20.62L206.85,395.64z M155.48,434.78c-13.98,0-25.16-11.18-25.16-25.16
			s11.18-25.16,25.16-25.16c13.98,0,25.16,11.18,25.16,25.16S169.46,434.78,155.48,434.78z"/>
		<path class="st0" d="M218.26,501.76c0.35-2.1,0.35-3.84,0-5.94l3.49-3.49l-3.49-8.74h-4.89c-1.05-1.4-2.8-2.8-4.19-4.19v-4.89
			l-8.74-3.49l-3.49,3.49c-2.1-0.35-3.84-0.35-5.94,0l-3.49-3.49l-8.74,3.49v4.89c-1.4,1.05-2.8,2.8-4.19,4.19h-4.89l-3.49,8.74
			l3.49,3.49c-0.35,2.1-0.35,3.84,0,5.94l-3.49,3.49l3.49,8.74h4.89c1.05,1.4,2.8,2.8,4.19,4.19v4.89l8.74,3.49l3.49-3.49
			c2.1,0.35,3.84,0.35,5.94,0l3.49,3.49l8.74-3.49v-4.89c1.4-1.05,5.53-0.06,6.93-1.46l2.16-2.73l3.49-8.74L218.26,501.76z
			 M190.3,509.1c-5.94-2.45-8.74-9.09-6.29-14.68c2.45-5.94,9.09-8.74,14.68-6.29c5.94,2.45,8.74,9.09,6.29,14.68
			C202.53,508.75,195.89,511.55,190.3,509.1z"/>
	</g>
	<g id="Woman">
		<polygon class="st15" points="577.7,676.93 577.7,692.97 560.76,692.97 560.3,680.12 560.14,675.41 		"/>
		<path class="st9" d="M577.7,688.39c0,0-8.4,6.87-17.56,0l-1.53,11.45h35.88C594.49,699.84,590.68,692.21,577.7,688.39z"/>
		<polygon class="st15" points="514.33,676.93 514.33,692.97 497.38,692.97 496.94,680.24 496.76,675.41 		"/>
		<polygon class="st16" points="514.33,676.93 514.33,683.97 496.94,680.24 496.76,675.41 		"/>
		<polygon class="st16" points="577.7,676.93 577.7,684.44 560.3,680.12 560.14,675.41 		"/>
		<path class="st15" d="M525.46,417.83v0.05l-0.24,5.84l-0.36,9.15l-18.05-3.61l4.21-15.65l4.22-25.87l25.87,1.2
			C542.31,423.24,525.46,417.83,525.46,417.83z"/>
		<path class="st17" d="M530.88,396.77c0,0-7.82-1.8-4.21,7.82c0,0-6.99,14.45-15.98,10.27c0,0-8.58-5.75-2.95-25.31
			c0,0,3.89-15.64,16.52-10.83c0,0,9.24-7.55,17.45-1.8c6.02,4.21,7.85,3.31,9.63,3.61c3.61,0.6,3.01,22.86-14.44,15.64l-0.97,4.37
			c-0.14,0.61-0.68,1.04-1.3,1.04l0,0c-0.46,0-0.89-0.24-1.13-0.63L530.88,396.77z"/>
		<path class="st9" d="M521.58,557.62l-1.86,99.44l-0.08,4.3c-0.01,0.06-0.01,0.13-0.01,0.19l-0.34,18.23h-25.96l-8.36-96.2
			l-0.8-9.16c0,0-26.46-2.21-25.51-30.04c0.16-4.92,1.19-10.64,3.37-17.3h49.62l6.73,20.69L521.58,557.62z"/>
		<path class="st18" d="M521.58,557.62l-1.86,99.44c0.15-42.29-19.23-63.37-34.75-73.48l-0.8-9.16c0,0-26.46-2.21-25.51-30.04
			l59.72,3.39L521.58,557.62z"/>
		<path class="st9" d="M586.57,562.77l-5.44,117.01h-25.96l-6.87-105.36c0,0-6.12,0.25-14.82,0h-0.12
			c-17.53-0.51-45.37-3.05-54.54-13.75c-13.74-16.03-9.92-36.64-9.92-36.64l42.75-2.29l62.08,21.94
			C581.75,546.52,586.97,554.27,586.57,562.77z"/>
		<polygon class="st15" points="633.53,504.94 595.64,504.94 595.64,496.45 599.56,496.85 601.7,497.05 615.04,494.63 632.02,501.9 
					"/>
		<polygon class="st16" points="600.81,504.94 595.64,504.94 595.64,496.45 599.56,496.85 		"/>
		<path class="st5" d="M600.22,495.01l-2.29,10.69l-53.07-4.24c-2.58-0.21-4.84-1.82-5.89-4.18l-9.76-22.12l-0.01,0.89l-0.75,51.79
			c0,0-17.07,10.04-46.74,8.96c-6.91-0.26-14.51-1.12-22.74-2.85c0,0,8.69-52.02,23.96-87.15c0,0,9.11-21.03,24.76-22.94
			c0,0,7.4,4.35,18.09,4.35l13.59,8.96c2.82,1.86,4.95,4.6,6.05,7.8l12.81,37.06L600.22,495.01z"/>
		<path class="st18" d="M529.2,476.05l-0.75,51.79c0,0-17.07,10.04-46.74,8.96C529,525.52,529,475,529,475L529.2,476.05z"/>
		<path class="st9" d="M514.33,688.39c0,0-8.4,6.87-17.56,0l-1.53,11.45h35.88C531.12,699.84,527.31,692.21,514.33,688.39z"/>
		<path class="st16" d="M525.46,417.88l-0.24,5.84c-1.59-1.59-3.4-4.33-4.31-8.87C520.91,414.86,522.85,416.79,525.46,417.88z"/>
		<path class="st5" d="M492,544"/>
		<path class="st18" d="M555.75,679.78h-0.58l-6.87-105.36c0,0-6.12,0.25-14.82,0L569,574
			C555.15,629.41,555.24,667.56,555.75,679.78z"/>
	</g>
	<g id="Plan">
		
			<linearGradient id="SVGID_00000098182698422219087370000014484567833181482129_" gradientUnits="userSpaceOnUse" x1="779.2151" y1="539.0803" x2="787.4162" y2="647.062">
			<stop  offset="0" style="stop-color:#55E7C3"/>
			<stop  offset="1" style="stop-color:#12302A"/>
			<stop  offset="1" style="stop-color:#12302A"/>
		</linearGradient>
		<path style="fill:url(#SVGID_00000098182698422219087370000014484567833181482129_);stroke:#FFFFFF;stroke-miterlimit:10;" d="
			M777.97,625.26l15.55,5.39c0,0,34.33-51.04-19.98-118.18C773.54,512.47,742.1,588.27,777.97,625.26z"/>
		
			<linearGradient id="SVGID_00000152964610975797144530000013520593785318301828_" gradientUnits="userSpaceOnUse" x1="786.0413" y1="628.3177" x2="829.1072" y2="536.2044">
			<stop  offset="0" style="stop-color:#55E7C3"/>
			<stop  offset="1" style="stop-color:#E4EEFA"/>
			<stop  offset="1" style="stop-color:#E4EEFA"/>
		</linearGradient>
		<path style="fill:url(#SVGID_00000152964610975797144530000013520593785318301828_);stroke:#FFFFFF;stroke-miterlimit:10;" d="
			M797.53,639.08l-12.83-1.4c0,0-14.95-62.19,28.54-88.3C813.24,549.38,831.02,606.61,797.53,639.08z"/>
		
			<linearGradient id="SVGID_00000155140905566677637470000007452408168026220448_" gradientUnits="userSpaceOnUse" x1="733.7783" y1="582.5647" x2="778.838" y2="623.6368">
			<stop  offset="0" style="stop-color:#55E7C3"/>
			<stop  offset="1" style="stop-color:#E4EEFA"/>
			<stop  offset="1" style="stop-color:#E4EEFA"/>
		</linearGradient>
		<path style="fill:url(#SVGID_00000155140905566677637470000007452408168026220448_);stroke:#FFFFFF;stroke-miterlimit:10;" d="
			M786.88,646.08l-11.36,6.11c0,0-43.94-37.52-22.91-83.67C752.61,568.53,796.08,600.35,786.88,646.08z"/>
		<polygon class="st0" points="809.79,633.57 800.68,701 764.23,701 764.2,700.8 755.11,633.57 		"/>
		<path class="st22" d="M809.79,633.57L800.68,701h-36.45l-0.03-0.2c30.38-16.13,43.08-58.55,45.4-67.23H809.79z"/>
	</g>
	<g id="Chair">
		<path class="st0" d="M489.13,495.2v68.91l-28.66,0.16l-39.67,0.22V495.2c0-18.87,15.29-34.16,34.16-34.16
			c9.44,0,17.98,3.82,24.16,10S489.13,485.76,489.13,495.2z"/>
		<rect x="462.79" y="569.84" class="st0" width="10.69" height="122.96"/>
		<rect x="459.86" y="569.84" class="st0" width="16.67" height="34.74"/>
		<path class="st0" d="M537.61,574.42H420.8v-13.36h103.45c3.69,0,7.03,1.5,9.45,3.91C536.12,567.39,537.61,570.73,537.61,574.42z"
			/>
		<rect x="442.17" y="689.92" class="st0" width="52.68" height="10.31"/>
		<path class="st23" d="M481.71,574.42H420.8v-63.11c2.71,16.68,11.9,34.8,34.53,49.75c1.64,1.09,3.35,2.16,5.14,3.21
			C466.64,567.9,473.68,571.3,481.71,574.42z"/>
	</g>
	<g id="Shield_icon">
		<circle class="st0" cx="728.36" cy="262.29" r="41.3"/>
		<path class="st5" d="M751.43,247.81c0,0-1.7,30.04-22.32,39.28c0,0-0.05,0.04-0.11,0.07c-0.03,0.03-0.07,0.04-0.1,0.03
			c-0.07,0.03-0.21-0.1-0.21-0.1c-20.62-9.24-22.32-39.28-22.32-39.28l22.32-10.95l0.21-0.1l0.1,0.05l0.11,0.05L751.43,247.81z"/>
		<path class="st22" d="M751.43,247.81c0,0-1.7,30.04-22.32,39.28c0,0-0.05,0.04-0.11,0.07v-50.35l0.11,0.05L751.43,247.81z"/>
	</g>
	<g id="Line">
		<rect x="157.31" y="698.13" class="st1" width="701.69" height="3"/>
	</g>
</g>
</svg>
